<?xml version="1.0" encoding="utf-8"?>
<!-- Generator: Adobe Illustrator 16.0.4, SVG Export Plug-In . SVG Version: 6.00 Build 0)  -->
<!DOCTYPE svg PUBLIC "-//W3C//DTD SVG 1.1//EN" "http://www.w3.org/Graphics/SVG/1.1/DTD/svg11.dtd">
<svg version="1.1" id="Layer_1" xmlns="http://www.w3.org/2000/svg" xmlns:xlink="http://www.w3.org/1999/xlink" x="0px" y="0px"
	 width="256.2px" height="201.029px" viewBox="-4.8 0 256.2 201.029" enable-background="new -4.8 0 256.2 201.029"
	 xml:space="preserve">
<path fill="#62A73B" stroke="#483F15" stroke-width="3.5" stroke-miterlimit="10" d="M246.452,108.412
	c0,0.416-0.944,26.135-8.497,29.238c-29.588,12.156-110.483,15.397-156.254,10.13c-19.49-2.243-38.652-28.071-38.652-39.368
	c0-19.122-0.358-41.93,13.633-55.763c18.64-18.429,54.238-17.131,86.323-17.131c33.874,0,75.229-1.691,93.712,18.529
	C248.882,67.356,246.452,90.711,246.452,108.412z"/>
<path fill="#62A73B" stroke="#483F15" stroke-width="3.5" stroke-miterlimit="10" d="M70.985,159.918
	c0,26.276-12.846,33.609-36.229,33.609c-23.384,0-40.214-60.44-35.08-68.56c7.474-11.819,20.346-17.865,34.207-17.865
	C57.267,107.103,70.985,133.642,70.985,159.918L70.985,159.918z"/>
<path fill="#62A73B" stroke="#483F15" stroke-width="3.5" stroke-miterlimit="10" d="M189.709,160.355
	c0,10.714-4.05,27.312-20.149,33.871c-13.606,5.543-37.565,1.921-57.109,1.921c-10.483,0-44.029,3.07-60.853-4.704
	c-16.514-7.632-16.405-26.063-16.405-31.088c0-9.477,7.076-23.33,20.053-29.732c13.393-6.608,35.295,0.178,56.502,0.868
	c1.11,0.036,2.218,0.056,3.322,0.056c25.444,0,50.634-9.143,64.711-0.351C189.31,137.148,189.709,152.374,189.709,160.355z"/>
<path fill="#62A73B" stroke="#483F15" stroke-width="3.5" stroke-miterlimit="10" d="M216.261,112.917
	c9.757,0,21.642-1.37,28.88,4.526c1.252,1.019,3.438,23.023-1.976,38.31c-7.758,21.911-26.523,39.224-46.982,39.224
	c-7.662,0-18.242,1.428-20.787,0.074c-5.223-2.776-0.602-11.652-0.602-29.318c0-12.086-3.158-26.846,3.248-36.435
	C185.566,118.039,203.632,112.917,216.261,112.917z"/>
<path fill="#FAFBFB" d="M146.765,100.105c0.186-0.31,0.495-0.619,0.681-0.619s0.124,0.31-0.062,0.619
	c-0.186,0.372-0.495,0.619-0.682,0.619C146.517,100.724,146.579,100.477,146.765,100.105z"/>
<g>
	
		<image overflow="visible" width="185" height="120" xlink:href="213095E7D8FEFE77.png"  transform="matrix(1 0 0 1 27.8264 64.1262)">
	</image>
</g>
<path fill="#050504" d="M222.496,37.906c0.023,0.074,0.047,0.148,0.07,0.222c-0.08-0.067-0.159-0.136-0.239-0.205
	C222.384,37.917,222.44,37.912,222.496,37.906z"/>
<path fill="#ED8223" d="M222.496,37.906c0.023,0.074,0.047,0.148,0.07,0.222c-0.08-0.067-0.159-0.136-0.239-0.205
	C222.384,37.917,222.44,37.912,222.496,37.906z"/>
<path fill="#F15650" d="M222.496,37.906c0.023,0.074,0.047,0.148,0.07,0.222c-0.08-0.067-0.159-0.136-0.239-0.205
	C222.384,37.917,222.44,37.912,222.496,37.906z"/>
<path fill="#FAFBFB" d="M222.496,37.906c0.023,0.074,0.047,0.148,0.07,0.222c-0.08-0.067-0.159-0.136-0.239-0.205
	C222.384,37.917,222.44,37.912,222.496,37.906z"/>
<path fill="#E6A319" d="M193.554,75.788c0,24.344-20.804,59.029-45.043,69.381c-14.565,6.221-47.067,10.402-63.114,2.117
	c-13.795-7.122-20.471-26.4-17.244-40.084c4.538-19.246,35.689-33.17,36.076-36.165c2.893-22.413,6.753-35.753,14.657-45.151
	c6.095-7.247,13.965-13.098,29.558-13.098c17.321,0,25.77,6.043,32.426,12.684C189.565,34.148,193.554,46.593,193.554,75.788
	L193.554,75.788z"/>
<path fill="#FBFCFC" d="M147.345,48.92c0.323,13.098-5.771,14.377-10.5,14.377s-11.685,4.429-10.069-12.546
	c0.741-7.786,5.341-15.777,10.069-15.777S147.152,41.101,147.345,48.92z"/>
<path fill="#FBFCFC" d="M166.56,49.613c0.323,13.098-5.125,16.207-9.854,16.207s-12.223,1.737-10.607-15.238
	c0.74-7.786,7.602-15.022,12.33-15.022S166.367,40.609,166.56,49.613L166.56,49.613z"/>
<path d="M189.912,14.182c0.884-0.884,1.768,0,1.768,0l0.173,0.291c2.758,1.361,4.485-2.696,4.16-5.11
	c-0.346-2.573-4.026-3.573-6.044-3.096c-4.438,0.97-7.216,4.974-9.646,8.78c-0.938,1.471-2.684,2.596-3.521,4.174
	c-1.281,2.414-2.86,4.627-3.98,7.138c-3.035,4.851-6.914,9.204-12.517,11.032c-4.108,1.341-7.786-1.774-4.634-5.569
	c0,0,0.813-0.949,1.763-0.136c0.948,0.813,0.135,1.763,0.135,1.763c-2.654,2.958,3.104,1.118,4.342,0.43
	c3.78-2.104,8.501-11.225,8.928-11.98c0.911-1.615,5.028-7.432,5.999-9.009c2.708-4.398,7.562-7.93,12.59-9.062
	c3.487-0.737,8.369,1.099,9.055,5.14c0.77,4.535-3.011,9.714-7.644,7.791l-0.926-0.807C189.912,15.95,189.029,15.067,189.912,14.182
	z"/>
<path stroke="#EF4060" stroke-width="2.5" stroke-miterlimit="10" d="M150.837,57.313c0-4.521,2.061-8.724,6.461-8.724
	c1.228,0,3.567,1.816,4.53,4.402c0.734,1.971,0.262,4.523,0.278,6.262c0.016,1.69-2.385,4.458-4.78,4.913
	C156.74,64.278,150.837,59.547,150.837,57.313z"/>
<path stroke="#EF4060" stroke-width="2.5" stroke-miterlimit="10" d="M129.791,57.482c0-4.521,2.06-9.478,6.461-9.478
	c2.163,0,4.878,3.736,4.916,7.757c0.02,2.104-3.644,6.368-6.524,6.824C131.827,63.031,129.791,59.716,129.791,57.482z"/>
<path d="M69.874,63.394c-1.364-8.797,6.354-21.104,6.354-21.104s9.146-5.481,16.092-3.187c6.111,2.02,9.708,6.379,8.433,8.701
	c-1.203,2.189-7.074,2.365-8.404,3.574c-2.361,2.146-1.448,6.91-0.693,7.474c4.123,3.082,8.724,5.418,13.344,5.63
	c5.427,0.249,13.008-1.692,21.093-3.273c8.427-1.647,17.094-1.875,17.094-1.875l-1.47,20.539c0,0-14.276,12.081-32.034,12.758
	c-13.392,0.511-18.23,0.443-25.792-3.641C82.228,88.093,73.783,88.601,69.874,63.394L69.874,63.394z"/>
<path d="M108.821,14.283l-0.926,0.808c-4.633,1.922-8.413-3.256-7.644-7.792c0.686-4.041,5.567-5.877,9.055-5.14
	c5.027,1.134,9.882,4.664,12.589,9.062c0.971,1.577,5.089,7.394,6,9.009c0.426,0.756,5.147,9.876,8.928,11.98
	c1.237,0.689,6.996,2.528,4.341-0.43c0,0-0.813-0.949,0.136-1.763s1.763,0.136,1.763,0.136c3.152,3.795-0.525,6.91-4.635,5.569
	c-5.602-1.827-9.48-6.182-12.516-11.032c-1.12-2.51-2.699-4.723-3.98-7.137c-0.839-1.579-2.584-2.704-3.521-4.174
	c-2.43-3.807-5.208-7.811-9.646-8.781c-2.017-0.478-5.697,0.522-6.043,3.096c-0.325,2.414,1.402,6.473,4.159,5.11l0.173-0.29
	c0,0,0.885-0.884,1.769,0S108.821,14.283,108.821,14.283L108.821,14.283z"/>
<path d="M176.714,93.067c-8.01-0.275-16.654-2.66-24.095-5.394c-10.868-3.992-19.167-8.73-19.167-8.73l6.079-19.174
	c0,0,9.618,0.228,18.97,1.875c8.973,1.581,17.386,3.523,23.409,3.273c5.127-0.212,10.232-2.547,14.809-5.629
	c0.837-0.564,1.851-5.327-0.771-7.475c-1.476-1.209-7.991-1.385-9.326-3.573c-1.416-2.323,2.576-6.682,9.357-8.702
	c7.708-2.295,17.858,3.188,17.858,3.188s8.565,12.306,7.052,21.103c-2.561,14.874-6.897,20.642-10.847,22.767
	C201.475,91.206,190.114,93.527,176.714,93.067z"/>
<path fill="#E6A319" stroke="#DD6C1D" stroke-width="1.5" stroke-miterlimit="10" d="M155.973,64.805c0,5.799-5.11,10.5-11.413,10.5
	c-6.304,0-11.413-4.701-11.413-10.5s5.109-10.5,11.413-10.5C150.863,54.305,155.973,59.006,155.973,64.805z"/>
<path fill="#483E17" d="M154.842,152.822c-0.83,0.83-1.66,0-1.66,0l-0.47-0.469c-1.076-1.087-1.917-1.616-3.375-2.094
	c-5.786-3.001-13.514-0.768-19.597,0.081c-1.866,0.26-9.723,2.341-12.162,2.341c-6.594,2.198-15.748,2.23-22.234-0.544
	c-2.473-1.058-5.083-1.775-7.538-2.828c-1.891-0.81-8.44-3.234-10.981-3.67c-2.216-0.381-4.276-1.072-6.528-1.402
	c-4.82-0.707-9.665,1.061-13.887,3.171c0,0-1.05,0.525-1.574-0.524c-0.525-1.05,0.524-1.575,0.524-1.575
	c4.643-2.321,9.933-4.14,15.224-3.401c2.267,0.315,4.393,1.057,6.617,1.415c2.572,0.414,9.89,3.127,11.556,3.841
	c2.435,1.044,5.03,1.752,7.486,2.806c6.106,2.623,14.757,2.463,20.96,0.396c2.38,0,10.241-2.059,12.252-2.354
	c6.634-0.973,14.435-2.994,20.781,0.08c1.712,0.58,2.854,1.331,4.137,2.603l0.47,0.47
	C154.842,151.162,155.671,151.991,154.842,152.822L154.842,152.822z"/>
</svg>
