<svg version="1.1" xmlns="http://www.w3.org/2000/svg" xmlns:xlink="http://www.w3.org/1999/xlink" width="251.40067" height="197.0591" viewBox="0,0,251.40067,197.0591"><g transform="translate(-90.44568,-102.86161)"><g data-paper-data="{&quot;isPaintingLayer&quot;:true}" fill-rule="nonzero" stroke-linecap="butt" stroke-linejoin="miter" stroke-miterlimit="10" stroke-dasharray="" stroke-dashoffset="0" style="mix-blend-mode: normal"><path d="M339.89849,209.27411c0,0.41613 -0.94508,26.13478 -8.49763,29.23793c-29.58769,12.15679 -110.48316,15.39785 -156.25362,10.12997c-19.49038,-2.24321 -38.65232,-28.07119 -38.65232,-39.3679c0,-19.12211 -0.35857,-41.92968 13.63279,-55.76269c18.63974,-18.42878 54.23822,-17.13086 86.32304,-17.13086c33.87405,0 75.22883,-1.69146 93.71212,18.52898c12.16481,13.30813 9.73562,36.66311 9.73562,54.36458z" fill="#96e034" stroke="#493d00" stroke-width="3.5"/><path d="M164.43017,260.77974c0,26.27619 -12.84515,33.6096 -36.22853,33.6096c-23.38338,0 -40.21373,-60.44039 -35.07966,-68.55966c7.47365,-11.81921 20.3454,-17.86504 34.20669,-17.86504c23.38338,0 37.10152,26.53891 37.10152,52.8151z" fill="#96e034" stroke="#493d00" stroke-width="3.5"/><path d="M283.15501,261.21623c0,10.7135 -4.04958,27.31142 -20.14987,33.87084c-13.60622,5.54331 -37.56541,1.92121 -57.10857,1.92121c-10.48417,0 -44.02933,3.07078 -60.85251,-4.704c-16.51374,-7.63178 -16.40593,-26.06382 -16.40593,-31.08804c0,-9.47605 7.07586,-23.32988 20.05305,-29.73273c13.39285,-6.60795 35.29458,0.17766 56.50204,0.86885c1.10977,0.03617 2.21764,0.05565 3.32228,0.05565c25.44366,0 50.63353,-9.14252 64.71047,-0.35055c9.5299,5.95203 9.92903,21.17883 9.92903,29.15877z" fill="#96e034" stroke="#493d00" stroke-width="3.5"/><path d="M309.70655,213.77867c9.75653,0 21.64176,-1.36958 28.88044,4.526c1.25151,1.01929 3.43675,23.02416 -1.97573,38.31003c-7.75835,21.91104 -26.52404,39.22378 -46.98317,39.22378c-7.66193,0 -18.24126,1.42724 -20.78648,0.07428c-5.2225,-2.77611 -0.60145,-11.65261 -0.60145,-29.319c0,-12.08526 -3.15858,-26.84503 3.24823,-36.43383c7.5231,-11.25949 25.58954,-16.38126 38.21817,-16.38126z" data-paper-data="{&quot;index&quot;:null}" fill="#96e034" stroke="#493d00" stroke-width="3.5"/><path d="M315.9418,138.76701c0.02346,0.074 0.04695,0.148 0.07045,0.222c-0.07977,-0.06814 -0.15958,-0.13646 -0.23945,-0.20497c0.05655,-0.00492 0.11289,-0.0106 0.16899,-0.01703z" fill="#040302" stroke="none" stroke-width="1"/><path d="M315.9418,138.76701c0.02346,0.074 0.04695,0.148 0.07045,0.222c-0.07977,-0.06814 -0.15958,-0.13646 -0.23945,-0.20497c0.05655,-0.00492 0.11289,-0.0106 0.16899,-0.01703z" fill="#ee8100" stroke="none" stroke-width="1"/><path d="M315.9418,138.76701c0.02346,0.074 0.04695,0.148 0.07045,0.222c-0.07977,-0.06814 -0.15958,-0.13646 -0.23945,-0.20497c0.05655,-0.00492 0.11289,-0.0106 0.16899,-0.01703z" fill="#f3554f" stroke="none" stroke-width="1"/><path d="M315.9418,138.76701c0.02346,0.074 0.04695,0.148 0.07045,0.222c-0.07977,-0.06814 -0.15958,-0.13646 -0.23945,-0.20497c0.05655,-0.00492 0.11289,-0.0106 0.16899,-0.01703z" fill="#fafafa" stroke="none" stroke-width="1"/><path d="M240.2103,200.96667c0.18575,-0.30958 0.49533,-0.61916 0.68108,-0.61916c0.18575,0 0.12383,0.30958 -0.06192,0.61916c-0.18575,0.3715 -0.49533,0.61916 -0.68108,0.61916c-0.18575,0 -0.12383,-0.24767 0.06192,-0.61916z" fill="#fafafa" stroke="none" stroke-width="1"/><path d="M287,176.65022c0,24.34293 -20.80388,59.0289 -45.04338,69.38081c-14.56573,6.22055 -47.06751,10.40177 -63.11375,2.11719c-13.79515,-7.12235 -20.47112,-26.40053 -17.24436,-40.08465c4.53827,-19.246 35.68924,-33.16974 36.07588,-36.16507c2.89306,-22.41285 6.75262,-35.75236 14.65731,-45.15106c6.09511,-7.24711 13.96459,-13.09721 29.5572,-13.09721c17.32162,0 25.76987,6.04221 32.42634,12.68354c8.69525,8.67548 12.68477,21.12035 12.68477,50.31646z" fill="#ffbc00" stroke="#ee8100" stroke-width="0"/><path d="M240.7904,149.78154c0.32307,13.09813 -5.77159,14.37693 -10.5,14.37693c-4.72841,0 -11.68462,4.4289 -10.06923,-12.54615c0.74094,-7.78602 5.34083,-15.77693 10.06923,-15.77693c4.72841,0 10.30714,6.12733 10.5,13.94616z" fill="#fbfbfb" stroke="none" stroke-width="0"/><path d="M260.00578,150.47385c0.32308,13.09813 -5.12544,16.20769 -9.85385,16.20769c-4.72841,0 -12.22309,1.73659 -10.6077,-15.23846c0.74094,-7.78602 7.60237,-15.02308 12.33078,-15.02308c4.7284,0 7.93791,5.05041 8.13077,14.05385z" fill="#fbfbfb" stroke="none" stroke-width="0"/><path d="M283.35812,115.04386c0.88388,-0.88388 1.76777,0 1.76777,0l0.17281,0.29064c2.75764,1.36145 4.48481,-2.69674 4.16011,-5.11046c-0.34618,-2.57343 -4.02678,-3.57339 -6.04368,-3.09567c-4.43837,0.96996 -7.21619,4.97384 -9.64575,8.78071c-0.93803,1.4698 -2.68348,2.59527 -3.52157,4.17383c-1.28156,2.41385 -2.86065,4.62686 -3.98039,7.13725c-3.03574,4.85039 -6.91469,9.20435 -12.51641,11.032c-4.10884,1.34058 -7.78685,-1.77423 -4.63455,-5.56927c0,0 0.81349,-0.94907 1.76256,-0.13558c0.94907,0.81349 0.13558,1.76256 0.13558,1.76256c-2.65442,2.95797 3.10375,1.11868 4.34144,0.4296c3.78005,-2.10453 8.50126,-11.22477 8.92777,-11.9807c0.9112,-1.61499 5.02868,-7.43133 5.99944,-9.00843c2.70759,-4.39874 7.56153,-7.92929 12.58955,-9.06243c3.4874,-0.73761 8.36897,1.0988 9.05436,5.13962c0.7693,4.53551 -3.01032,9.71403 -7.64381,7.7915l-0.92523,-0.8074c0,0 -0.88388,-0.88388 0,-1.76777z" fill="#000000" stroke="none" stroke-width="0.5"/><path d="M244.2827,158.17385c0,-4.52024 2.06025,-8.72308 6.46154,-8.72308c1.2272,0 3.56703,1.81664 4.52989,4.40224c0.7338,1.97048 0.26154,4.52301 0.27777,6.26168c0.01578,1.69091 -2.38388,4.45843 -4.7797,4.91291c-0.58601,0.11116 -6.4895,-4.61911 -6.4895,-6.85375z" fill="#000000" stroke="#ff5252" stroke-width="2.5"/><path d="M223.23655,158.34308c0,-4.52024 2.06025,-9.47692 6.46154,-9.47692c2.16245,0 4.87783,3.73613 4.91536,7.75622c0.01964,2.1045 -3.64316,6.3687 -6.52411,6.82417c-2.8167,0.44532 -4.85278,-2.86884 -4.85278,-5.10347z" fill="#000000" stroke="#ff5252" stroke-width="2.5"/><path d="M163.32018,164.25553c-1.36423,-8.79682 6.35374,-21.10335 6.35374,-21.10335c0,0 9.14642,-5.48227 16.09162,-3.18673c6.11105,2.01983 9.70774,6.37897 8.43191,8.70145c-1.20253,2.18904 -7.07342,2.36493 -8.40346,3.57382c-2.36202,2.14686 -1.44858,6.90969 -0.6938,7.47394c4.12283,3.08205 8.72319,5.41726 13.3438,5.62959c5.4269,0.24939 13.00784,-1.69276 21.09303,-3.2735c8.4265,-1.64748 17.09341,-1.87509 17.09341,-1.87509l-1.46956,20.53913c0,0 -14.27672,12.08122 -32.03465,12.75823c-13.39084,0.51052 -18.23043,0.44253 -25.79134,-3.64079c-1.66162,-0.89737 -10.10551,-0.38942 -14.0147,-25.5967z" fill="#000000" stroke="none" stroke-width="0"/><path d="M202.26588,115.14496l-0.92523,0.8074c-4.63349,1.92253 -8.41311,-3.25599 -7.64381,-7.7915c0.68539,-4.04082 5.56695,-5.87723 9.05436,-5.13962c5.02802,1.13314 9.88196,4.6637 12.58955,9.06243c0.97076,1.5771 5.08824,7.39344 5.99944,9.00843c0.4265,0.75592 5.14771,9.87617 8.92776,11.9807c1.23769,0.68908 6.99586,2.52837 4.34145,-0.4296c0,0 -0.81349,-0.94907 0.13558,-1.76256c0.94907,-0.81349 1.76256,0.13558 1.76256,0.13558c3.1523,3.79504 -0.5257,6.90985 -4.63455,5.56927c-5.60172,-1.82765 -9.48067,-6.1816 -12.51641,-11.03199c-1.11973,-2.51039 -2.69883,-4.72341 -3.98039,-7.13726c-0.83808,-1.57855 -2.58353,-2.70402 -3.52157,-4.17382c-2.42956,-3.80687 -5.20738,-7.81075 -9.64575,-8.7807c-2.01689,-0.47773 -5.6975,0.52224 -6.04368,3.09567c-0.3247,2.41372 1.40247,6.47191 4.16011,5.11046l0.17281,-0.29064c0,0 0.88388,-0.88389 1.76777,0c0.88389,0.88389 0,1.76777 0,1.76777z" data-paper-data="{&quot;index&quot;:null}" fill="#000000" stroke="none" stroke-width="0.5"/><path d="M182.61804,198.05902c-0.55901,1.11803 -1.67705,0.55902 -1.67705,0.55902l-0.66667,-0.33334c-5.03349,-2.55152 -9.71135,0.07799 -14.2153,2.33334c0,0 -1.11803,0.55901 -1.67705,-0.55902c-0.55901,-1.11803 0.55902,-1.67705 0.55902,-1.67705c5.2959,-2.64372 10.60833,-5.22142 16.45136,-2.33333l0.66666,0.33333c0,0 1.11803,0.55901 0.55902,1.67705z" fill="#ffbc00" stroke="none" stroke-width="0.5"/><path d="M270.15936,193.9278c-8.00925,-0.27515 -16.65394,-2.65941 -24.09468,-5.39301c-10.86769,-3.9926 -19.16705,-8.73043 -19.16705,-8.73043l6.07963,-19.17392c0,0 9.6183,0.2276 18.96981,1.87508c8.97275,1.58075 17.38588,3.5229 23.40851,3.27351c5.12783,-0.21233 10.23319,-2.54753 14.8086,-5.62959c0.83765,-0.56424 1.85134,-5.32708 -0.76996,-7.47394c-1.47604,-1.20889 -7.9914,-1.38478 -9.32594,-3.57382c-1.41589,-2.32249 2.57563,-6.68162 9.35751,-8.70145c7.7076,-2.29554 17.85807,3.18673 17.85807,3.18673c0,0 8.56519,12.30654 7.05122,21.10335c-2.55978,14.87329 -6.89679,20.64117 -10.84636,22.76662c-8.56832,4.61101 -19.92919,6.93121 -33.32934,6.47086z" data-paper-data="{&quot;index&quot;:null}" fill="#000000" stroke="none" stroke-width="0"/><path d="M249.41829,164.66642c0,5.79899 -5.1098,10.5 -11.41305,10.5c-6.30325,0 -11.41304,-4.70101 -11.41304,-10.5c0,-5.79899 5.10979,-10.5 11.41304,-10.5c6.30325,0 11.41305,4.70101 11.41305,10.5z" fill="#ffbc00" stroke="#ee8100" stroke-width="1.5"/><path d="M248.2873,253.68344c-0.82997,0.82998 -1.65996,0 -1.65996,0l-0.46951,-0.4695c-1.07617,-1.08636 -1.91731,-1.61562 -3.37524,-2.09309c-5.78556,-3.00111 -13.51321,-0.76769 -19.59616,0.08056c-1.86615,0.26023 -9.72302,2.34116 -12.16254,2.34116c-6.59398,2.19799 -15.74812,2.23074 -22.23445,-0.5437c-2.47257,-1.0576 -5.08266,-1.77587 -7.53777,-2.82803c-1.89062,-0.81025 -8.4407,-3.23511 -10.9813,-3.67087c-2.216,-0.38009 -4.27691,-1.07212 -6.52848,-1.40215c-4.82084,-0.70663 -9.66559,1.06105 -13.88634,3.17142c0,0 -1.04985,0.52492 -1.57477,-0.52493c-0.52492,-1.04985 0.52492,-1.57477 0.52492,-1.57477c4.64204,-2.32102 9.93201,-4.13948 15.22302,-3.40166c2.26647,0.31605 4.39277,1.05635 6.61768,1.41488c2.57232,0.41451 9.88906,3.12725 11.55497,3.84122c2.43491,1.04356 5.03044,1.75137 7.48642,2.80604c6.10636,2.62222 14.75764,2.46279 20.96006,0.39532c2.3798,0 10.24129,-2.0592 12.25175,-2.35389c6.63459,-0.97248 14.43493,-2.99454 20.78133,0.08056c1.71249,0.57994 2.85498,1.33021 4.13684,2.60197l0.46951,0.4695c0,0 0.82997,0.82997 0,1.65995z" fill="#493d00" stroke="none" stroke-width="0.5"/></g></g></svg>